<svg width="87" height="131" viewBox="0 0 87 131" fill="none" xmlns="http://www.w3.org/2000/svg">
<path d="M45.3609 68.0935L6.81353e-06 68.0935L6.50912e-06 75.0575L50.0024 75.0575L45.3609 68.0935Z" fill="url(#paint0_linear_84_891)"/>
<path d="M39.1484 58.7687L7.22113e-06 58.7687L6.91659e-06 65.7358L43.7899 65.7358L39.1484 58.7687Z" fill="url(#paint1_linear_84_891)"/>
<path d="M51.5703 77.4153L6.40606e-06 77.4152L6.10152e-06 84.3823L56.2118 84.3823L51.5703 77.4153Z" fill="url(#paint2_linear_84_891)"/>
<path d="M76.4172 114.711L1.07213e-05 114.711L1.04168e-05 121.678L81.0587 121.678L76.4172 114.711Z" fill="url(#paint3_linear_84_891)"/>
<path d="M57.7828 86.74L1.1944e-05 86.74L1.16394e-05 93.707L62.4243 93.707L57.7828 86.74Z" fill="url(#paint4_linear_84_891)"/>
<path d="M63.9953 96.0647L1.15364e-05 96.0647L1.1232e-05 103.029L68.6337 103.029L63.9953 96.0647Z" fill="url(#paint5_linear_84_891)"/>
<path d="M70.2047 105.386L1.11289e-05 105.386L1.08244e-05 112.353L74.8462 112.354L70.2047 105.386Z" fill="url(#paint6_linear_84_891)"/>
<path d="M32.9391 49.444L1.35742e-05 49.444L1.32697e-05 56.411L37.5774 56.411L32.9391 49.444Z" fill="url(#paint7_linear_84_891)"/>
<path d="M1.57355e-05 -3.80289e-06L1.53074e-05 9.79331L6.52112 9.79331L1.57355e-05 -3.80289e-06Z" fill="url(#paint8_linear_84_891)"/>
<path d="M8.09216 12.151L1.52044e-05 12.151L1.49e-05 19.1151L12.7336 19.1151L8.09216 12.151Z" fill="url(#paint9_linear_84_891)"/>
<path d="M14.3047 21.4728L1.47969e-05 21.4728L1.44924e-05 28.4398L18.9461 28.4398L14.3047 21.4728Z" fill="url(#paint10_linear_84_891)"/>
<path d="M26.7266 40.1222L1.39817e-05 40.1222L1.36773e-05 47.0863L31.368 47.0863L26.7266 40.1222Z" fill="url(#paint11_linear_84_891)"/>
<path d="M20.5141 30.7975L1.43893e-05 30.7975L1.40848e-05 37.7645L25.1555 37.7645L20.5141 30.7975Z" fill="url(#paint12_linear_84_891)"/>
<path d="M87 130.596L82.6297 124.036L1.03137e-05 124.036L1.00093e-05 131L85.6658 131L87 130.596Z" fill="url(#paint13_linear_84_891)"/>
<path d="M41.639 62.9095L87 62.9095L87 55.9425L36.9976 55.9425L41.639 62.9095Z" fill="url(#paint14_linear_84_891)"/>
<path d="M47.8484 72.2312L87 72.2313L87 65.2672L43.2101 65.2672L47.8484 72.2312Z" fill="url(#paint15_linear_84_891)"/>
<path d="M35.4265 53.5847L87 53.5848L87 46.6177L30.7851 46.6177L35.4265 53.5847Z" fill="url(#paint16_linear_84_891)"/>
<path d="M10.5828 16.2888L87 16.2888L87 9.32472L5.94132 9.32472L10.5828 16.2888Z" fill="url(#paint17_linear_84_891)"/>
<path d="M29.214 44.26L87 44.26L87 37.296L24.5757 37.296L29.214 44.26Z" fill="url(#paint18_linear_84_891)"/>
<path d="M23.0047 34.9382L87 34.9382L87 27.9712L18.3632 27.9712L23.0047 34.9382Z" fill="url(#paint19_linear_84_891)"/>
<path d="M16.7922 25.6135L87 25.6135L87 18.6465L12.1507 18.6465L16.7922 25.6135Z" fill="url(#paint20_linear_84_891)"/>
<path d="M54.0609 81.556L87 81.556L87 74.589L49.4195 74.589L54.0609 81.556Z" fill="url(#paint21_linear_84_891)"/>
<path d="M87 131L87 121.207L80.4758 121.207L87 131Z" fill="url(#paint22_linear_84_891)"/>
<path d="M78.9047 118.849L87 118.849L87 111.885L74.2664 111.885L78.9047 118.849Z" fill="url(#paint23_linear_84_891)"/>
<path d="M72.6953 109.527L87 109.527L87 102.56L68.0539 102.56L72.6953 109.527Z" fill="url(#paint24_linear_84_891)"/>
<path d="M60.2703 90.8807L87 90.8807L87 83.9137L55.632 83.9137L60.2703 90.8807Z" fill="url(#paint25_linear_84_891)"/>
<path d="M66.4828 100.202L87 100.202L87 93.2384L61.8414 93.2384L66.4828 100.202Z" fill="url(#paint26_linear_84_891)"/>
<path d="M3.94999e-05 0.403758L4.3703 6.96702L87 6.96702L87 4.49697e-06L1.33418 7.52394e-07L3.94999e-05 0.403758Z" fill="url(#paint27_linear_84_891)"/>
<defs>
<linearGradient id="paint0_linear_84_891" x1="53.9109" y1="177.214" x2="-0.111621" y2="11.0378" gradientUnits="userSpaceOnUse">
<stop stop-color="#8D2676"/>
<stop offset="0.42822" stop-color="#EE342F"/>
<stop offset="1" stop-color="#F3B01C"/>
</linearGradient>
<linearGradient id="paint1_linear_84_891" x1="53.9109" y1="177.214" x2="-0.111621" y2="11.0378" gradientUnits="userSpaceOnUse">
<stop stop-color="#8D2676"/>
<stop offset="0.42822" stop-color="#EE342F"/>
<stop offset="1" stop-color="#F3B01C"/>
</linearGradient>
<linearGradient id="paint2_linear_84_891" x1="53.9109" y1="177.214" x2="-0.111621" y2="11.0378" gradientUnits="userSpaceOnUse">
<stop stop-color="#8D2676"/>
<stop offset="0.42822" stop-color="#EE342F"/>
<stop offset="1" stop-color="#F3B01C"/>
</linearGradient>
<linearGradient id="paint3_linear_84_891" x1="53.9109" y1="177.214" x2="-0.111621" y2="11.0378" gradientUnits="userSpaceOnUse">
<stop stop-color="#8D2676"/>
<stop offset="0.42822" stop-color="#EE342F"/>
<stop offset="1" stop-color="#F3B01C"/>
</linearGradient>
<linearGradient id="paint4_linear_84_891" x1="53.9109" y1="177.214" x2="-0.111621" y2="11.0378" gradientUnits="userSpaceOnUse">
<stop stop-color="#8D2676"/>
<stop offset="0.42822" stop-color="#EE342F"/>
<stop offset="1" stop-color="#F3B01C"/>
</linearGradient>
<linearGradient id="paint5_linear_84_891" x1="53.9109" y1="177.214" x2="-0.111621" y2="11.0378" gradientUnits="userSpaceOnUse">
<stop stop-color="#8D2676"/>
<stop offset="0.42822" stop-color="#EE342F"/>
<stop offset="1" stop-color="#F3B01C"/>
</linearGradient>
<linearGradient id="paint6_linear_84_891" x1="53.9109" y1="177.214" x2="-0.111621" y2="11.0378" gradientUnits="userSpaceOnUse">
<stop stop-color="#8D2676"/>
<stop offset="0.42822" stop-color="#EE342F"/>
<stop offset="1" stop-color="#F3B01C"/>
</linearGradient>
<linearGradient id="paint7_linear_84_891" x1="53.9109" y1="177.214" x2="-0.111621" y2="11.0378" gradientUnits="userSpaceOnUse">
<stop stop-color="#8D2676"/>
<stop offset="0.42822" stop-color="#EE342F"/>
<stop offset="1" stop-color="#F3B01C"/>
</linearGradient>
<linearGradient id="paint8_linear_84_891" x1="53.9109" y1="177.214" x2="-0.111621" y2="11.0378" gradientUnits="userSpaceOnUse">
<stop stop-color="#8D2676"/>
<stop offset="0.42822" stop-color="#EE342F"/>
<stop offset="1" stop-color="#F3B01C"/>
</linearGradient>
<linearGradient id="paint9_linear_84_891" x1="53.9109" y1="177.214" x2="-0.111621" y2="11.0378" gradientUnits="userSpaceOnUse">
<stop stop-color="#8D2676"/>
<stop offset="0.42822" stop-color="#EE342F"/>
<stop offset="1" stop-color="#F3B01C"/>
</linearGradient>
<linearGradient id="paint10_linear_84_891" x1="53.9109" y1="177.214" x2="-0.111621" y2="11.0378" gradientUnits="userSpaceOnUse">
<stop stop-color="#8D2676"/>
<stop offset="0.42822" stop-color="#EE342F"/>
<stop offset="1" stop-color="#F3B01C"/>
</linearGradient>
<linearGradient id="paint11_linear_84_891" x1="53.9109" y1="177.214" x2="-0.111621" y2="11.0378" gradientUnits="userSpaceOnUse">
<stop stop-color="#8D2676"/>
<stop offset="0.42822" stop-color="#EE342F"/>
<stop offset="1" stop-color="#F3B01C"/>
</linearGradient>
<linearGradient id="paint12_linear_84_891" x1="53.9109" y1="177.214" x2="-0.111621" y2="11.0378" gradientUnits="userSpaceOnUse">
<stop stop-color="#8D2676"/>
<stop offset="0.42822" stop-color="#EE342F"/>
<stop offset="1" stop-color="#F3B01C"/>
</linearGradient>
<linearGradient id="paint13_linear_84_891" x1="53.9109" y1="177.214" x2="-0.111621" y2="11.0378" gradientUnits="userSpaceOnUse">
<stop stop-color="#8D2676"/>
<stop offset="0.42822" stop-color="#EE342F"/>
<stop offset="1" stop-color="#F3B01C"/>
</linearGradient>
<linearGradient id="paint14_linear_84_891" x1="53.9109" y1="177.214" x2="-0.111621" y2="11.0378" gradientUnits="userSpaceOnUse">
<stop stop-color="#8D2676"/>
<stop offset="0.42822" stop-color="#EE342F"/>
<stop offset="1" stop-color="#F3B01C"/>
</linearGradient>
<linearGradient id="paint15_linear_84_891" x1="53.9109" y1="177.214" x2="-0.111621" y2="11.0378" gradientUnits="userSpaceOnUse">
<stop stop-color="#8D2676"/>
<stop offset="0.42822" stop-color="#EE342F"/>
<stop offset="1" stop-color="#F3B01C"/>
</linearGradient>
<linearGradient id="paint16_linear_84_891" x1="53.9109" y1="177.214" x2="-0.111621" y2="11.0378" gradientUnits="userSpaceOnUse">
<stop stop-color="#8D2676"/>
<stop offset="0.42822" stop-color="#EE342F"/>
<stop offset="1" stop-color="#F3B01C"/>
</linearGradient>
<linearGradient id="paint17_linear_84_891" x1="53.9109" y1="177.214" x2="-0.111621" y2="11.0378" gradientUnits="userSpaceOnUse">
<stop stop-color="#8D2676"/>
<stop offset="0.42822" stop-color="#EE342F"/>
<stop offset="1" stop-color="#F3B01C"/>
</linearGradient>
<linearGradient id="paint18_linear_84_891" x1="53.9109" y1="177.214" x2="-0.111621" y2="11.0378" gradientUnits="userSpaceOnUse">
<stop stop-color="#8D2676"/>
<stop offset="0.42822" stop-color="#EE342F"/>
<stop offset="1" stop-color="#F3B01C"/>
</linearGradient>
<linearGradient id="paint19_linear_84_891" x1="53.9109" y1="177.214" x2="-0.111621" y2="11.0378" gradientUnits="userSpaceOnUse">
<stop stop-color="#8D2676"/>
<stop offset="0.42822" stop-color="#EE342F"/>
<stop offset="1" stop-color="#F3B01C"/>
</linearGradient>
<linearGradient id="paint20_linear_84_891" x1="53.9109" y1="177.214" x2="-0.111621" y2="11.0378" gradientUnits="userSpaceOnUse">
<stop stop-color="#8D2676"/>
<stop offset="0.42822" stop-color="#EE342F"/>
<stop offset="1" stop-color="#F3B01C"/>
</linearGradient>
<linearGradient id="paint21_linear_84_891" x1="53.9109" y1="177.214" x2="-0.111621" y2="11.0378" gradientUnits="userSpaceOnUse">
<stop stop-color="#8D2676"/>
<stop offset="0.42822" stop-color="#EE342F"/>
<stop offset="1" stop-color="#F3B01C"/>
</linearGradient>
<linearGradient id="paint22_linear_84_891" x1="53.9109" y1="177.214" x2="-0.111621" y2="11.0378" gradientUnits="userSpaceOnUse">
<stop stop-color="#8D2676"/>
<stop offset="0.42822" stop-color="#EE342F"/>
<stop offset="1" stop-color="#F3B01C"/>
</linearGradient>
<linearGradient id="paint23_linear_84_891" x1="53.9109" y1="177.214" x2="-0.111621" y2="11.0378" gradientUnits="userSpaceOnUse">
<stop stop-color="#8D2676"/>
<stop offset="0.42822" stop-color="#EE342F"/>
<stop offset="1" stop-color="#F3B01C"/>
</linearGradient>
<linearGradient id="paint24_linear_84_891" x1="53.9109" y1="177.214" x2="-0.111621" y2="11.0378" gradientUnits="userSpaceOnUse">
<stop stop-color="#8D2676"/>
<stop offset="0.42822" stop-color="#EE342F"/>
<stop offset="1" stop-color="#F3B01C"/>
</linearGradient>
<linearGradient id="paint25_linear_84_891" x1="53.9109" y1="177.214" x2="-0.111621" y2="11.0378" gradientUnits="userSpaceOnUse">
<stop stop-color="#8D2676"/>
<stop offset="0.42822" stop-color="#EE342F"/>
<stop offset="1" stop-color="#F3B01C"/>
</linearGradient>
<linearGradient id="paint26_linear_84_891" x1="53.9109" y1="177.214" x2="-0.111621" y2="11.0378" gradientUnits="userSpaceOnUse">
<stop stop-color="#8D2676"/>
<stop offset="0.42822" stop-color="#EE342F"/>
<stop offset="1" stop-color="#F3B01C"/>
</linearGradient>
<linearGradient id="paint27_linear_84_891" x1="53.9109" y1="177.214" x2="-0.111621" y2="11.0378" gradientUnits="userSpaceOnUse">
<stop stop-color="#8D2676"/>
<stop offset="0.42822" stop-color="#EE342F"/>
<stop offset="1" stop-color="#F3B01C"/>
</linearGradient>
</defs>
</svg>
