<svg xmlns="http://www.w3.org/2000/svg" fill="none" viewBox="0 0 617 617" height="40"><circle cx="308.5" cy="308.5" r="308.5" fill="url(#tanstack-logo_a)"></circle><mask id="tanstack-logo_b" width="617" height="617" x="0" y="0" maskUnits="userSpaceOnUse" style="mask-type: luminance;"><circle cx="308.5" cy="308.5" r="308.5" fill="#fff"></circle></mask><g mask="url(#tanstack-logo_b)"><path fill="#015064" stroke="#00CFE2" stroke-width="25" d="M296 602.5c0 101.183-94.405 185.968-214.5 185.968S-133 703.683-133 602.5s94.405-185.968 214.5-185.968S296 501.317 296 602.5ZM750 602.5c0 101.183-94.405 185.968-214.5 185.968S321 703.683 321 602.5s94.405-185.968 214.5-185.968S750 501.317 750 602.5Z"></path><path fill="#015064" stroke="#00A8B8" stroke-width="25" d="M296 640.5c0 101.183-94.405 185.968-214.5 185.968S-133 741.683-133 640.5s94.405-185.968 214.5-185.968S296 539.317 296 640.5ZM750 640.5c0 101.183-94.405 185.968-214.5 185.968S321 741.683 321 640.5s94.405-185.968 214.5-185.968S750 539.317 750 640.5Z"></path><path fill="#015064" stroke="#007782" stroke-width="25" d="M296 676.5c0 101.183-94.405 185.968-214.5 185.968S-133 777.683-133 676.5s94.405-185.968 214.5-185.968S296 575.317 296 676.5ZM750 676.5c0 101.183-94.405 185.968-214.5 185.968S321 777.683 321 676.5s94.405-185.968 214.5-185.968S750 575.317 750 676.5Z"></path><path fill="url(#tanstack-logo_c)" fill-rule="evenodd" d="M209.943 196.442q13.065 55.317 20.463 107.43t3.081 115.619l51.973-11.359q-24.37-87.956-30.145-115.576t-23.783-98.538z" clip-rule="evenodd"></path><path stroke="#6E3A00" stroke-width="6.088" d="M209.943 196.442q13.065 55.317 20.463 107.43t3.081 115.619l51.973-11.359q-24.37-87.956-30.145-115.576t-23.783-98.538l-21.589 2.424"></path><path fill="url(#tanstack-logo_d)" fill-rule="evenodd" stroke="#2F8A00" stroke-width="9.343" d="M209.873 175.116s-13.167-21.538-36.926-28.434c-23.76-6.897-54.283 12.947-54.283 12.947s24.225 20.421 40.925 23.352 50.284-7.865 50.284-7.865Z" clip-rule="evenodd"></path><path fill="url(#tanstack-logo_e)" fill-rule="evenodd" stroke="#2F8A00" stroke-width="9.343" d="M209.863 175.716s-47.075-6.82-81.413 18.518c-34.338 25.337-27.711 99.827-27.711 99.827s43.387-43.081 62.138-63.772 46.986-54.573 46.986-54.573Z" clip-rule="evenodd"></path><path fill="url(#tanstack-logo_f)" fill-rule="evenodd" stroke="#2F8A00" stroke-width="9.343" d="M209.873 175.116s-2.372-32.604 18.671-48.622 44.241-16.828 44.241-16.828-7.861 32.158-23.295 43.961c-15.435 11.804-39.617 21.489-39.617 21.489Z" clip-rule="evenodd"></path><path fill="url(#tanstack-logo_g)" fill-rule="evenodd" stroke="#2F8A00" stroke-width="9.343" d="M209.863 175.716s45.575-46.441 94.245-32.229 55.804 56.809 55.804 56.809-52.243-6.397-75.076-9.37-74.973-15.21-74.973-15.21Z" clip-rule="evenodd"></path><path fill="url(#tanstack-logo_h)" fill-rule="evenodd" stroke="#2F8A00" stroke-width="9.343" d="M209.863 175.716s52.54-13.157 88.591 18.719c36.052 31.877 44.402 78.358 44.402 78.358s-59.232-12.397-85.652-39.125-47.341-57.952-47.341-57.952Z" clip-rule="evenodd"></path><path fill="url(#tanstack-logo_i)" fill-rule="evenodd" stroke="#2F8A00" stroke-width="9.343" d="M209.863 175.716s-48.905 22.343-56.978 67.314 11.978 98.686 11.978 98.686 38.387-61.467 43.657-89.101c5.27-27.633 1.343-76.899 1.343-76.899Z" clip-rule="evenodd"></path><path stroke="#2F8A00" stroke-linecap="round" stroke-width="5.91" d="M211.283 173.477s-20.775 32.987-28.32 60.093c-7.544 27.106-9.435 45.216-9.435 45.216"></path><path stroke="#2F8A00" stroke-linecap="round" stroke-width="5.91" d="M209.814 176.884s-35.973 3.847-56.43 23.714c-20.456 19.867-29.535 38.675-29.535 38.675M219.044 167.299s43.543-11.585 65.832-7.352 35.843 14.51 35.843 14.51M211.31 172.617s30.436 13.661 54.186 29.838c23.75 16.178 35.644 30.617 35.644 30.617"></path><path stroke="#830305" stroke-linecap="round" stroke-linejoin="bevel" stroke-width="6.937" d="m409.378 398.157-23.174 18.556M328.04 375.516l-22.313 28.398M312.904 353.698l53.18 59.815"></path><path fill="url(#tanstack-logo_j)" fill-rule="evenodd" d="m350.104 379.005 61.142 9.684s5.45 1.903 4.563 7.504-6.751 6.315-6.751 6.315l-66.343-10.507-36.489-36.514s-3.064-4.504.344-8.051 8.515-1.49 8.515-1.49z" clip-rule="evenodd"></path><path fill="#D8D8D8" fill-rule="evenodd" d="m402.861 391.51.472-4.088Z" clip-rule="evenodd"></path><path stroke="#fff" stroke-linecap="round" stroke-linejoin="bevel" stroke-width="4.414" d="m402.861 391.51.472-4.088"></path><path fill="#D8D8D8" fill-rule="evenodd" d="m382.21 388.752.472-4.088Z" clip-rule="evenodd"></path><path stroke="#fff" stroke-linecap="round" stroke-linejoin="bevel" stroke-width="4.414" d="m382.21 388.752.472-4.088"></path><path fill="#D8D8D8" fill-rule="evenodd" d="m361.546 385.404.485-3.845Z" clip-rule="evenodd"></path><path stroke="#fff" stroke-linecap="round" stroke-linejoin="bevel" stroke-width="4.414" d="m361.546 385.404.485-3.845"></path><path fill="#D8D8D8" fill-rule="evenodd" d="m337.59 371.882 2.56-2.497Z" clip-rule="evenodd"></path><path stroke="#fff" stroke-linecap="round" stroke-linejoin="bevel" stroke-width="4.414" d="m337.59 371.882 2.56-2.497"></path><path fill="#D8D8D8" fill-rule="evenodd" d="m324.275 359.567 2.561-2.497Z" clip-rule="evenodd"></path><path stroke="#fff" stroke-linecap="round" stroke-linejoin="bevel" stroke-width="4.414" d="m324.275 359.567 2.561-2.497"></path><ellipse cx="308.5" cy="720.5" fill="url(#tanstack-logo_k)" rx="266" ry="316.5"></ellipse><path stroke="#6DA300" stroke-opacity="0.502" stroke-width="26" d="M561.5 720.5c0 169.827-115.298 303.5-253 303.5s-253-133.673-253-303.5S170.798 417 308.5 417s253 133.673 253 303.5Z"></path><circle cx="557.5" cy="81.5" r="113.5" fill="url(#tanstack-logo_l)"></circle><circle cx="557.5" cy="81.5" r="106" stroke="#FFC900" stroke-opacity="0.529" stroke-width="15"></circle><path stroke="url(#tanstack-logo_m)" stroke-linecap="round" stroke-linejoin="bevel" stroke-width="12" d="M419 81h-30"></path><path stroke="url(#tanstack-logo_n)" stroke-linecap="round" stroke-linejoin="bevel" stroke-width="12" d="M422.5 47.5 396 42"></path><path stroke="url(#tanstack-logo_o)" stroke-linecap="round" stroke-linejoin="bevel" stroke-width="12" d="m423 114-29 8"></path><path stroke="url(#tanstack-logo_p)" stroke-linecap="round" stroke-linejoin="bevel" stroke-width="12" d="m434 145-24 13"></path><path stroke="url(#tanstack-logo_q)" stroke-linecap="round" stroke-linejoin="bevel" stroke-width="12" d="m456 172-20 19"></path><path stroke="url(#tanstack-logo_r)" stroke-linecap="round" stroke-linejoin="bevel" stroke-width="12" d="m483.373 195-13.834 22.847"></path><path stroke="url(#tanstack-logo_s)" stroke-linecap="round" stroke-linejoin="bevel" stroke-width="12" d="M516.5 211.5 509 236"></path><path stroke="url(#tanstack-logo_t)" stroke-linecap="round" stroke-linejoin="bevel" stroke-width="12" d="m556.5 220.5.5 24.5"></path></g><defs><linearGradient id="tanstack-logo_a" x1="87.46" x2="87.46" y1="0" y2="442.079" gradientUnits="userSpaceOnUse"><stop stop-color="#6BDAFF"></stop><stop offset="0.319" stop-color="#F9FFB5"></stop><stop offset="0.706" stop-color="#FFA770"></stop><stop offset="1" stop-color="#FF7373"></stop></linearGradient><linearGradient id="tanstack-logo_c" x1="285.169" x2="207.973" y1="249.206" y2="374.705" gradientUnits="userSpaceOnUse"><stop stop-color="#673800"></stop><stop offset="1" stop-color="#B65E00"></stop></linearGradient><linearGradient id="tanstack-logo_d" x1="118.934" x2="118.262" y1="144.175" y2="182.657" gradientUnits="userSpaceOnUse"><stop stop-color="#2F8A00"></stop><stop offset="1" stop-color="#90FF57"></stop></linearGradient><linearGradient id="tanstack-logo_e" x1="101.345" x2="99.237" y1="173.222" y2="294.035" gradientUnits="userSpaceOnUse"><stop stop-color="#2F8A00"></stop><stop offset="1" stop-color="#90FF57"></stop></linearGradient><linearGradient id="tanstack-logo_f" x1="210.669" x2="209.508" y1="108.582" y2="175.11" gradientUnits="userSpaceOnUse"><stop stop-color="#2F8A00"></stop><stop offset="1" stop-color="#90FF57"></stop></linearGradient><linearGradient id="tanstack-logo_g" x1="210.505" x2="209.479" y1="138.907" y2="197.67" gradientUnits="userSpaceOnUse"><stop stop-color="#2F8A00"></stop><stop offset="1" stop-color="#90FF57"></stop></linearGradient><linearGradient id="tanstack-logo_h" x1="209.939" x2="208.209" y1="171.347" y2="270.443" gradientUnits="userSpaceOnUse"><stop stop-color="#2F8A00"></stop><stop offset="1" stop-color="#90FF57"></stop></linearGradient><linearGradient id="tanstack-logo_i" x1="152.199" x2="149.289" y1="174.71" y2="341.444" gradientUnits="userSpaceOnUse"><stop stop-color="#2F8A00"></stop><stop offset="1" stop-color="#90FF57"></stop></linearGradient><linearGradient id="tanstack-logo_j" x1="357.416" x2="372.629" y1="341.58" y2="405.088" gradientUnits="userSpaceOnUse"><stop stop-color="#EE2700"></stop><stop offset="1" stop-color="#FF008E"></stop></linearGradient><linearGradient id="tanstack-logo_k" x1="287.259" x2="121.173" y1="349.066" y2="572.649" gradientUnits="userSpaceOnUse"><stop stop-color="#FFF400"></stop><stop offset="1" stop-color="#3C8700"></stop></linearGradient><linearGradient id="tanstack-logo_l" x1="444" x2="444" y1="-32" y2="195" gradientUnits="userSpaceOnUse"><stop stop-color="#FFDF00"></stop><stop offset="1" stop-color="#FF9D00"></stop></linearGradient><linearGradient id="tanstack-logo_m" x1="412.184" x2="411.742" y1="78.727" y2="83.93" gradientUnits="userSpaceOnUse"><stop stop-color="#FFA400"></stop><stop offset="1" stop-color="#FF5E00"></stop></linearGradient><linearGradient id="tanstack-logo_n" x1="416.865" x2="412.748" y1="38.182" y2="52.737" gradientUnits="userSpaceOnUse"><stop stop-color="#FFA400"></stop><stop offset="1" stop-color="#FF5E00"></stop></linearGradient><linearGradient id="tanstack-logo_o" x1="416.411" x2="409.859" y1="108.909" y2="127.568" gradientUnits="userSpaceOnUse"><stop stop-color="#FFA400"></stop><stop offset="1" stop-color="#FF5E00"></stop></linearGradient><linearGradient id="tanstack-logo_p" x1="428.547" x2="412.63" y1="136.727" y2="159.813" gradientUnits="userSpaceOnUse"><stop stop-color="#FFA400"></stop><stop offset="1" stop-color="#FF5E00"></stop></linearGradient><linearGradient id="tanstack-logo_q" x1="451.456" x2="427.008" y1="159.909" y2="180.127" gradientUnits="userSpaceOnUse"><stop stop-color="#FFA400"></stop><stop offset="1" stop-color="#FF5E00"></stop></linearGradient><linearGradient id="tanstack-logo_r" x1="480.23" x2="457.009" y1="180.461" y2="191.508" gradientUnits="userSpaceOnUse"><stop stop-color="#FFA400"></stop><stop offset="1" stop-color="#FF5E00"></stop></linearGradient><linearGradient id="tanstack-logo_s" x1="515.182" x2="499.694" y1="195.09" y2="198.984" gradientUnits="userSpaceOnUse"><stop stop-color="#FFA400"></stop><stop offset="1" stop-color="#FF5E00"></stop></linearGradient><linearGradient id="tanstack-logo_t" x1="557.546" x2="553.445" y1="204.09" y2="204.348" gradientUnits="userSpaceOnUse"><stop stop-color="#FFA400"></stop><stop offset="1" stop-color="#FF5E00"></stop></linearGradient></defs></svg>